Coordinates
nRows=9
nColumns=38

# SIMM Motion File Header:
name Coordinates
datacolumns 38
datarows 9
otherdata 1
range 0.67058000000000006000 0.67857999999999996000

Units are S.I. units (second, meters, Newtons, ...)
Angles are in degrees.

endheader
time	pelvis_tilt	pelvis_list	pelvis_rotation	pelvis_tx	pelvis_ty	pelvis_tz	hip_flexion_r	hip_adduction_r	hip_rotation_r	knee_angle_r	ankle_angle_r	subtalar_angle_r	mtp_angle_r	hip_flexion_l	hip_adduction_l	hip_rotation_l	knee_angle_l	ankle_angle_l	subtalar_angle_l	mtp_angle_l	lumbar_extension	lumbar_bending	lumbar_rotation	arm_flex_r	arm_add_r	arm_rot_r	elbow_flex_r	pro_sup_r	wrist_flex_r	wrist_dev_r	arm_flex_l	arm_add_l	arm_rot_l	elbow_flex_l	pro_sup_l	wrist_flex_l	wrist_dev_l
      0.67058000000000006000	      0.09841325253418964400	      4.14826402543328410000	      7.56848144603238020000	      0.73202633430050601000	      0.97298909275195389000	     -0.37889637617021282000	     31.21017545188498600000	     -9.31329354702598520000	     -4.28206746934684990000	   -105.68607856205584000000	     -6.40835567143926710000	      0.00000000000018147932	      0.00000000000002547324	      3.21297128257703160000	      9.57039361187775310000	      5.49917576070535750000	    -31.24904884745315300000	     19.60983749106909700000	      0.00000000000004140894	     -0.00000000000005915164	    -16.58357897197462100000	     -4.34375493392055120000	    -10.37011382900729500000	    -27.15823763287324200000	    -22.57457098027262900000	      3.61378606900800530000	    110.50198817733300000000	     68.90769931037635800000	     -0.00000000000001659024	     -0.00000000000000043246	     -4.74850684507948810000	    -34.78706502879127500000	     -1.47382630304624170000	    122.62455854986145000000	    102.29480082460071000000	     -0.00000000000000665767	     -0.00000000000000309105
      0.67158000000000007000	      0.07936473722365167100	      4.05255573886891260000	      7.59621803057670690000	      0.73210143871375100000	      0.97356236612191926000	     -0.37895344947705600000	     31.42078976558474000000	     -9.22586177271248250000	     -4.31499169357620450000	   -105.39211682365703000000	     -6.37109316747040120000	      0.00000000000018200610	      0.00000000000002547839	      2.88168866110197500000	      9.43709469526397630000	      5.59418817516040170000	    -30.94053437532974400000	     19.48137790962410100000	      0.00000000000004127567	     -0.00000000000005901042	    -16.54438507310061400000	     -4.20803647457711700000	    -10.48756261015752900000	    -27.27236399090050900000	    -22.58415651378225800000	      3.47840385471586750000	    110.61877934707181000000	     68.73277417172920400000	     -0.00000000000001665550	     -0.00000000000000037414	     -4.67997434337590780000	    -34.67918958869170600000	     -1.38675593353507610000	    122.65191339000896000000	    102.12541492579011000000	     -0.00000000000000667729	     -0.00000000000000309778
      0.67258000000000007000	      0.06023959101162005400	      3.95573444913640950000	      7.62290037209886600000	      0.73218422291384588000	      0.97414300673640530000	     -0.37900794451990694000	     31.62748061987658200000	     -9.13664918038804960000	     -4.34872161173000470000	   -105.09087070482649000000	     -6.33392565137011590000	      0.00000000000018253201	      0.00000000000002548247	      2.54926431153661600000	      9.30182296363127930000	      5.68905091394720050000	    -30.62822837491349400000	     19.34522169757845900000	      0.00000000000004113510	     -0.00000000000005883747	    -16.50388291947586300000	     -4.07141891220205920000	    -10.60332687514821800000	    -27.38725937148866100000	    -22.59535836614717800000	      3.34345424483779170000	    110.73752572947475000000	     68.56146913217730800000	     -0.00000000000001671777	     -0.00000000000000031666	     -4.61544490719610860000	    -34.57364678307774900000	     -1.29666722812401130000	    122.68248746337881000000	    101.95026507303348000000	     -0.00000000000000669545	     -0.00000000000000310849
      0.67358000000000007000	      0.04106297190672823800	      3.85788317926203250000	      7.64849646969745400000	      0.73227461652743275000	      0.97473083054248111000	     -0.37905987675898112000	     31.83021262973168000000	     -9.04576085112335090000	     -4.38317678038976230000	   -104.78242156426334000000	     -6.29681397283500740000	      0.00000000000018306141	      0.00000000000002548662	      2.21577958550118790000	      9.16468025457047370000	      5.78363946775862820000	    -30.31232474440866300000	     19.20128580899039500000	      0.00000000000004102270	     -0.00000000000005867730	    -16.46212255788746500000	     -3.93398518801212350000	    -10.71737268868864100000	    -27.50289183314968600000	    -22.60817449159663200000	      3.20890736985832840000	    110.85805102489563000000	     68.39394547280154800000	     -0.00000000000001677968	     -0.00000000000000026108	     -4.55482994361314740000	    -34.47043646785789400000	     -1.20356015334279890000	    122.71618085728500000000	    101.76989976904335000000	     -0.00000000000000671162	     -0.00000000000000312378
      0.67458000000000007000	      0.02185794225232188400	      3.75908419102577930000	      7.67297647539113380000	      0.73237254116978046000	      0.97532565040389030000	     -0.37910926858375738000	     32.02895386855139000000	     -8.95330159899525310000	     -4.41827815342267720000	   -104.46685049175673000000	     -6.25972057193854960000	      0.00000000000018359426	      0.00000000000002548988	      1.88132187126711200000	      9.02576974054089300000	      5.87782743845648970000	    -29.99302539107840800000	     19.04948838681212600000	      0.00000000000004086438	     -0.00000000000005844061	    -16.41915289192488800000	     -3.79581599347349210000	    -10.82966977268561400000	    -27.61922841474065000000	    -22.62260346576238800000	      3.07473324674568180000	    110.98018169071449000000	     68.23034961348038500000	     -0.00000000000001684151	     -0.00000000000000020632	     -4.49804528116572120000	    -34.36955270756589400000	     -1.10744567638698330000	    122.75289170047749000000	    101.58487433688099000000	     -0.00000000000000672803	     -0.00000000000000314458
      0.67558000000000007000	      0.00264526973959546390	      3.65941860829355740000	      7.69631276153987810000	      0.73247791086284153000	      0.97592727616769748000	     -0.37915614877270254000	     32.22367602349591200000	     -8.85937542819234740000	     -4.45394844497928410000	   -104.14423807958106000000	     -6.22260969708202350000	      0.00000000000018412301	      0.00000000000002549213	      1.54598437632287820000	      8.88519548235523620000	      5.97148685038789400000	    -29.67053950032373400000	     18.88975063010450100000	      0.00000000000004069462	     -0.00000000000005820885	    -16.37502133789403700000	     -3.65698950050423650000	    -10.94019146959060900000	    -27.73623521698488400000	    -22.63864428561527500000	      2.94090186802301550000	    111.10374705956694000000	     68.07081303860476900000	     -0.00000000000001690238	     -0.00000000000000015219	     -4.44501125514236860000	    -34.27098402964126900000	     -1.00834554437654320000	    122.79251631180337000000	    101.39574877928848000000	     -0.00000000000000674548	     -0.00000000000000317188
      0.67657999999999996000	     -0.01655672800121733200	      3.55896604773619620000	      7.71847996976893040000	      0.73259063250468792000	      0.97653551462701793000	     -0.37920055192570795000	     32.41435450546330800000	     -8.76408499349360780000	     -4.49011247250758320000	   -103.81466418774865000000	     -6.18544759810796660000	      0.00000000000018464669	      0.00000000000002549490	      1.20986584338098660000	      8.74306197127224040000	      6.06448845624067090000	    -29.34508267387478100000	     18.72199801271091600000	      0.00000000000004051813	     -0.00000000000005796509	    -16.32977352430614800000	     -3.51758110231464640000	    -11.04891469201626500000	    -27.85387747870331100000	    -22.65629618005760200000	      2.80738330453954980000	    111.22857945091600000000	     67.91545233850905600000	     -0.00000000000001696277	     -0.00000000000000009654	     -4.39565277913586530000	    -34.17471368466515000000	     -0.90629203595902785000	    122.83494937208060000000	    101.20308566686286000000	     -0.00000000000000676544	     -0.00000000000000318197
      0.67757999999999996000	     -0.03573221225782190900	      3.45780427990788160000	      7.73945501567639840000	      0.73271060640212382000	      0.97715016956652379000	     -0.37924251784229951000	     32.60096841856879700000	     -8.66753108307396760000	     -4.52669744878591910000	   -103.47820770472740000000	     -6.14820264165912530000	      0.00000000000018516646	      0.00000000000002549772	      0.87307009501583976000	      8.59947361898241880000	      6.15670197354094380000	    -29.01687572539250600000	     18.54615837375297700000	      0.00000000000004032525	     -0.00000000000005766346	    -16.28345313573941800000	     -3.37766318712901860000	    -11.15581984244011500000	    -27.97211961732375900000	    -22.67555846984963400000	      2.67414785135600750000	    111.35451426191359000000	     67.76436964026842700000	     -0.00000000000001702340	     -0.00000000000000004224	     -4.34989935435970750000	    -34.08071994460306800000	     -0.80132762377122202000	    122.88008417166573000000	    101.00744811980506000000	     -0.00000000000000678666	     -0.00000000000000319506
      0.67857999999999996000	     -0.05486779493236222000	      3.35600891764704780000	      7.75921708792845080000	      0.73283772672369474000	      0.97777104211280885000	     -0.37928209092364723000	     32.78350045564074100000	     -8.56981215848072610000	     -4.56363325228165100000	   -103.13494633047658000000	     -6.11084537587807390000	      0.00000000000018568124	      0.00000000000002549948	      0.53570555392509556000	      8.45453432918810500000	      6.24799644041448850000	    -28.68614385074337000000	     18.36216353695829500000	      0.00000000000004013210	     -0.00000000000005734215	    -16.23610184425206500000	     -3.23730493406471890000	    -11.26089073902595100000	    -28.09092523533981700000	    -22.69643048665535500000	      2.54116619866956390000	    111.48139005860361000000	     67.61765330620978900000	     -0.00000000000001708410	      0.00000000000000001256	     -4.30768502038311670000	    -33.98897642908492100000	     -0.69350457718809921000	    122.92781290123982000000	    100.80939786038439000000	     -0.00000000000000680798	     -0.00000000000000320787
